<?xml version="1.0" encoding="UTF-8"?><svg id="Ebene_2" xmlns="http://www.w3.org/2000/svg" viewBox="0 0 480.1 501.91"><defs><style>.cls-1{fill:#d3ba91;}</style></defs><g id="Ebene_1-2"><path id="Layer_1" class="cls-1" d="M71.17,23.58c27.73-.29,50.44,21.96,50.72,49.68.14,13.65-5.28,26.76-15.01,36.33-19.44,19.78-51.22,20.05-71,.62-9.71-9.54-15.13-22.62-15.01-36.23-.11-27.73,22.29-50.29,50.01-50.4.1,0,.19,0,.29,0ZM92.29,52.85c-11.52-11.72-30.37-11.87-42.08-.35-5.75,5.66-8.96,13.4-8.89,21.47-.19,16.43,12.97,29.91,29.41,30.11,8.15.1,15.98-3.15,21.66-8.99,11.66-11.58,11.73-30.42.15-42.08-.05-.05-.1-.1-.15-.15h-.1ZM13.57,27.9C28.64,8.96,52.02-1.4,76.16.15c21.53.69,41.68,10.79,55.1,27.65,16.99,21.12,16.51,54.05,7.3,87.36-11.52,41.85-36.86,85.44-57.31,106.07-3.49,4-9.23,5.18-14.02,2.88-.83-.41-1.61-.92-2.3-1.54-.53-.46-1.01-.98-1.44-1.54-20.54-20.54-45.69-64.03-57.21-105.69C-2.84,82.04-3.32,49.11,13.57,27.99v-.1ZM47.36,26.17c-6.93,3.48-13.02,8.43-17.86,14.5-12.19,15.36-11.14,41.66-3.55,69.21,9.6,34.56,29.18,70.36,46.46,90.81,17.28-20.45,36.96-56.16,46.46-90.81,7.68-27.55,8.74-53.95-3.46-69.12-11.02-13.89-28.2-21.43-45.89-20.16-7.68.23-15.21,2.13-22.08,5.57h-.1ZM73.09,213.84l-.48.1.48-.1ZM73.09,213.84l7.2-2.69-7.2,2.69ZM387.38,245.61c34.35-.11,62.29,27.66,62.4,62.01,0,.13,0,.26,0,.38.11,34.35-27.66,62.29-62.01,62.4-.13,0-.26,0-.38,0-34.35.11-62.29-27.66-62.4-62.01,0-.13,0-.26,0-.38-.11-34.35,27.66-62.29,62.01-62.4.13,0,.26,0,.38,0h0ZM417.04,278.44c-16.25-16.44-42.75-16.58-59.19-.33-8.01,7.92-12.49,18.73-12.42,29.99-.13,23.11,18.51,41.96,41.62,42.09,11.26.06,22.07-4.42,29.99-12.42,16.38-16.31,16.44-42.81.13-59.19-.04-.05-.09-.09-.13-.13h0ZM314.9,250.03c18.99-23.74,48.38-36.71,78.72-34.75,27.12.83,52.5,13.53,69.4,34.75,21.41,26.78,20.64,68.44,8.93,110.87-14.78,53.76-47.33,109.91-73.53,136.51-3.61,4.4-9.76,5.75-14.88,3.26-.76-.39-1.47-.87-2.11-1.44-.71-.56-1.36-1.21-1.92-1.92-26.21-26.59-58.75-82.56-73.53-136.31-11.71-42.53-12.48-84.19,8.93-110.97h0ZM355.03,243.31c-9.42,4.69-17.7,11.38-24.29,19.58-16.61,20.73-15.26,55.97-5.09,92.73,12.86,46.94,40.03,95.52,63.36,121.91,23.23-26.4,50.4-74.97,63.36-121.91,10.08-36.77,11.42-72-5.18-92.73-14.96-18.74-38.19-28.9-62.11-27.17-10.44.29-20.69,2.84-30.05,7.49v.1ZM389.68,489.73l-.48.19.48-.19ZM389.68,489.73l6.72-2.4-6.72,2.4ZM73.09,205.01c-5.62.13-10.07,4.8-9.94,10.42.13,5.62,4.8,10.07,10.42,9.94,8.35-.19,18.62-1.15,29.76-2.21,34.65-3.26,79.1-7.49,84.48,8.83,3.84,11.71-23.52,21.89-47.61,31.01-24.96,9.31-47.52,17.76-46.37,34.75,1.34,19.39,31.49,20.16,67.39,21.21,34.46.96,75.26,2.11,89.28,16.13,4.22,4.32,3.94,7.68.96,10.56-6.53,6.53-20.35,13.25-35.23,20.45-35.71,17.28-77.08,37.34-69.79,76.8,3.46,19.01,35.04,31.49,81.79,40.03,43.01,7.87,99.74,13.44,158.39,17.95,5.67-.22,10.08-5,9.86-10.66-.19-4.77-3.64-8.79-8.33-9.69-58.27-4.61-114.43-10.08-156.28-17.66-38.3-7.1-63.74-14.78-65.37-23.71-4.42-24.09,29.37-40.51,58.56-54.72,16.7-7.97,32.06-15.36,40.99-24.38,11.81-11.71,13.92-24.38-1.15-39.45-19.68-19.68-64.89-20.93-103.1-22.08-15.86.05-31.72-.66-47.52-2.11-.19-1.92,15.55-7.78,33.02-14.4,32.83-12.19,69.88-26.11,59.9-56.35-10.46-31.87-63.93-26.78-105.79-22.75-10.85.96-20.73,1.92-28.32,2.11h0Z"/></g></svg>