<?xml version="1.0" encoding="UTF-8"?><svg id="Ebene_2" xmlns="http://www.w3.org/2000/svg" viewBox="0 0 880.49 827.57"><defs><style>.cls-1{fill:#750034;}.cls-2,.cls-3{fill:#401717;opacity:.38;}.cls-3{font-family:BodoniModa-ExtraBold, 'Bodoni Moda';font-size:65.94px;font-variation-settings:'wght' 800, 'opsz' 11;font-weight:700;}.cls-4{letter-spacing:0em;}</style></defs><g id="Ebene_3"><path id="NA9Jn3" class="cls-2" d="M809.12,217.59l-2.39,3.7,14.99,7.59-3.33,5.17c7.53,2.36,12.59,8.91,20.62,10.2l-2.48,4.79c8,6.18,14.28,13.2,20.17,21.32-8.5,1.42-16.76,3.91-25.16,5.75-1.39.3-3.7-.09-4.45.27-1.33.64-1.27,3.55-3.91,3.71l9.33,12.33-5.21,2.36c4.64,9.1,5.33,20.2.88,29.41l-4.9-2.13c3.08,4.87,3.64,13.82,2.57,19.49-2.08,11.05-12.19,19.91-12.82,32.02-3.24-1.44-4.74-4.71-7.76-6.67-3.86-2.5-8.22-3.62-12.32-6.84-2.48-1.95-4-4.9-6.82-6.48l.14,9.5c-4.85-5.47-13.01-5.9-19.8-7.6-1.8.72-4.36,16.09-3.22,18.9-3.37-3.98-6.96-7.09-11.61-9.58.74,4.39-6.09,23.44-9.9,23.52-9.45-5.83-7.34-.97-11.65,4.94-1.74,2.38-4.64,4.36-6.52,6.71-1.12.12-3.7-3.68-5.83-1.95-.81.66-6.42,8.09-7.47,9.64-2.16,3.19-3.63,6.33-5.23,9.77-1.34-4.66-2.54-8.93-7.47-11.11-1.77,10.38-10.84,17.99-12.46,27.8-.66,4,1.44,11.22-6.75,5.96-6.86-4.41-10.32-17.94-11.8-25.52-1.23-1.77-3.13,2.93-6.5,2.36-6.61-1.13-9.56-20.58-9.44-26.29-1.91,1.59-3.47,3.71-5.18,5.53-.64.68-1.04,2.82-2.27,1.16-3.05-4.13-2.84-14.65-2.99-19.73-1.9-1.99-5.27,4.14-7.59,2.31-1.7-1.35-4.27-10.4-1.94-12.67l-14.38-.32-9.45,4.8c2.12-4.12,8.93-24.61.22-24.02-1.62.11-2.32,2.6-3.96.66l1-5.62-13.11,3.54c1.86,16.26-12.87,36.65-29.64,37.35-5.73.24-9.93-2.53-15.32-3.04-2.36,2.92-2.71,6.74-4.75,10.01-11.95,19.07-42.24,18.66-54.7.19-9.65,5.4-18.82,7.93-29.67,4.14-4.71-1.64-8.61-4.95-12.78-6.21-2.86-.86-7.49-.05-10.94-.6-27.71-4.39-33.31-28.22-21.03-50.65,2.58-4.71,8.58-10.31,10.02-14.24.89-2.43-.06-8.65.6-12.21,1.15-6.21,4.28-12.74,8.57-17.44,2.35-2.57,8.61-4.37,9.21-6.69-6.32-17.25,2.01-37.7,18.8-45.44-1.36-13.51,2.82-30.23,15.03-37.79,3.19-1.97,6.78-1.98,9.88-3.76-5.52-17.41-.94-34.38,16.17-42.96l-1.74-6.04c-1.97-1.65-4.22.11-6.37,0-5.83-.32-3.51-5.68-6.58-7.3-.86-.45-9.77-1.06-12.56-1.86-6.7-1.93-12.96-5.28-19.25-8.2,2.98-1.65,5.18-4.38,7.85-6.4,2.1-1.58,8.61-5.04,9.57-6.16,1.35-1.58.06-3.51,1.3-5.11,1.37-1.76,9.44-3.65,9.39-7.09-.01-1.01-1.62-2.26-1.28-3.62.56-2.21,8.95-6.99,11.41-8.35,4.96-2.75,13.66-2.94,9.24-10.07.21-3.03,9.67-6.14,12.52-7.07,4.42-1.45,8.75-2.35,13.36-2.91-.45-2.98-1.99-5.87-4.48-7.62l8.22-4.6c.85-2.24-11.54-12.79-13.42-14.97l2.14-3.28c-4.38-5.26-4.55-12.82-11.64-15.98,2.07-1.04,3.68-.69,3.44-3.59-.33-3.95-6.4-17.69-9.88-20.48-.27-2.08,7.95-3.53,9.72-3.59,7.4-.25,14.23,4.19,21.3,5.84l.16-5.11c3.71,1.7,12.16,5.59,16.07,5.17,3.49-.37,1.21-2.41,2.48-4.7l18.08,2.78c.34-1.28-1.07-6.52,1.15-6.58l25.7,5.6.69-4.27c8.78.76,16.55,7.21,22.05,13.71,1.3,1.53,3.57,6.23,4.19,6.75.85.71,2.42-.13,3.6.51,2.19,1.18,5.4,5.99,7.45,7.88l7.65-7.64c7.55,4.52,8.58,17.29,18.34,16.07l-.81,15.17c1.42,1.52,1.42.45,2.28.16,1.56-.53,7.4-4.36,8.01-3.95,1.15,8.59-.76,16.63-4.32,24.47l3.18,2.45c-3.38,11.05-13.81,18.34-25.16,19.44,3.63,2.99,9.56,3.24,13.88,5.42,4.67,2.35,8.37,7.47,12.66,8.54,3.19.79,20.8-3.62,25.81-4.22,22.76-2.74,48.27-.9,67.15,13.6,2.78,2.14,6.6,7.24,8.97,8.6,2.99,1.71,8.55.57,11.96,2.8,2.94,1.92,6.1,7.68,9.29,10.14,6.18,4.75,33.28,8.67,39.26,2.74,2.27-2.26,3.2-5.94,6.32-7.6,3.32,3.4,7.57,1.34,11.12,2.92,6.93,3.1,18.15,9.65,22.98,15.35,6.52,7.7,4.92,17.33,7.63,26.41-6.82,5.8-13.97,14.71-23.99,12.78-3.33-.64-6.47-2.74-9.62-3.34-10.2-1.93-23.56.27-36.15-2.45-23.29-5.04-56.66-31-72.52-.05-2.1,4.1-5.16,17.76-.12,20.42,3.36,1.78,8.88-8.4,13.46-8.67l2.82,4.4c8.37-4.29,18.01-4.03,26.57-1.16.71,1.83-2.84,5.63.83,7.48,9.85-1.39,18.88,2.29,27.37,7.16ZM762.63,129.92c-5.03-4.3-12.77-7.49-18.1-11.7l7.24,2.6c9.43,4.34,14.61,12.06,22.09,18.47-.72,1.6-2.51,3.12-3.03,4.69-.24.72,1.3,1.41.94,1.8-.83.9-13.38,4.51-16,5.58-5.35,2.19-20.21,10.95-24.73,9.26-2.36-.88-5.13-3.87-7.2-3.94-1.58-.05-3.27,2.31-3.67,2.32-.78.02-1.57-1.95-2.73-2.21-.79-.18-15.34,1.75-16.02,2.19-2.3,1.5,1.92,1.66,2.34,1.95l-.23,2.02c2.44.71,12.75-.73,13.96-.25,1.14.45,1.53,2.14,1.98,3.19l2.53-1.48-.7,2.69,2.8-.29.93,5.84c1.96-2.43,1.8-8.01,5.99-7.65-2.53,2.51-1.82,6.76-4.02,9.18-4.28,4.71-23.18,16.32-29.54,19.72-2.75,1.47-8.47,1.7-7.06,5.57,1.33.95,13.4-3.23,15.63-4.21,4-1.74,8.39-5.55,11.3-6.62s5.86.95,8.7-.94c4.07-2.71,3.09-6.34,5.07-9.54,2.76-4.47,11.33-10.97,16.07-13.52,22.72-12.23,38.53,4.16,60.25,8.05,3.83.68,27.54,2.18,29.37.47.74-.7.63-2.1-.52-2.49-2.33-.8-12.19.75-15.78.66-5.45-.13-11-.69-16.32-1.95-17.07-4.06-32.45-16.96-50.66-10.79.03-1.77,3.76-2.61,5.08-3.01,19.22-5.77,38.85,11.16,59.81,11.89,1.81.06,13.85-.61,14.42-1.07.79-.64,1.75-2.2.08-2.56-1.77-.38-7.36.5-10.12.27-18.77-1.57-26.67-9.14-43-13.62-1.07-.29-9.76-1.14-8.7-2.02,1.38-.35,2.67-1.49,4.1-1.64,1.66-.17,14.22,4.01,16.97,4.94,3.55,1.21,7.02,3.42,10.53,4.58,9.63,3.2,21.11,4.28,31.01,2.19,2-5.18-4.96-1.17-5.41-2.97l7.04-2.77c.57,5.82-.13,9.5,2.81,14.97,5.79,10.78,25.61,29.49,34.29,11.74,6.61-13.51-10.55-33.58-23.74-34.82-1.71-.16-4.73,2.89-6.64.92l3.88-1.15c-.2-1.68-7.16-1.51-7.82-.85-1.31,1.68,1.4,3.38.89,4.84-1.11,3.15-9.99,3.15-13.14,3.26-10.58.36-34.44-2.85-41.79-10.52-3-3.13-3.28-8.91-8.84-10.5l-.56,4.88c-17.03-24.63-51.52-30.44-79.28-25.63-6.49,1.12-20.73,6.67-26.26,5.07-5.13-1.48-5.5-4.52-8.63-7.11-5.99-4.95-14.77-7.49-22.24-9.25-4.31-1.01-15.06-1.52-17.86-3.11-1.27-.72-1.31-.68-.39-1.79,3.44-4.16,9.81-8.04,13.91-12.33,9.95-10.41,17.09-22.12,20.54-36.17l-1.47-.94c-6.05,15.54-16.39,30.03-29.06,40.9-.47-9.15,3.57-22.85-4.68-29.22,9.99-3.22,11.12-19.23,5.72-26.66-.85.15.57,14.13-4.2,12.98,2.18-4.58.19-9.91-1.18-14.38-1.2,2.87-.73,5.96-1.88,8.99-.33.88-1.67,4.47-3.06,3.52,3.48-10.96-.86-26.53-11.93-31.79,2.52,6.82,5.97,12.41,7.08,19.79,1.94,12.94-3.48,21.25-3.68,32.6-.04,2.5,1.81,15.1,2.83,16.57s1.75-.1,2.2-1.1c1.21-2.69,1.09-5.84,2.42-8.47,2.69,4.55-1.5,11.92-1.38,15.88.1,3.3,2.78-.47,3.47-2.01,3.79-8.47,1.9-17.22.42-25.85,3.65,1.69,4.37,3.9,5.13,7.48,1.07,5-.27,24.27-2.44,28.57-1.22,2.41-6.91,5.78-2.89,8.9,2.28,1.77,6.55-.62,9.38-.72,10.12-.38,19.19,2.52,27.29,8.69,2.27,1.73,4.27,4.87,6.46,6.26,2.65,1.68,6.44,1.32,9.17,2.79l-7.72,5.47,4.56,1.99-.24,1.85c1.71-1.54,6.34.08,6.67-.02s2.4-3.3,3.83-4.44c3.76-3,25.02-7.48,30.68-8.2,20.09-2.58,46.56,4.27,59.29,21.01,2.38,3.14,1.77,4.5,2.6,8.02l2.2-3.65c.02-.63-6.41-9.35-7.38-10.18ZM644,46.91c1.37-4.05,1.46-8.39.17-12.45l-5.06,13.48.37-8.66-2.02-4.97c-.22,5.1-1.3,9.7-4.69,13.71-.81-2.26.53-4.61.05-7.32-.26-1.45-.74-2.1-1.35-.35-.67,1.92-4.15,14.11-3.77,14.96l7.94,6.09,3.15-10.54-2.14,12.24c1.71,1.47,3.89-.16,5.08-1.49,4.86-5.46,7.61-12.69,7.3-19.96-.05-1.27,1.15-1.83-1.01-2.62-1.28,1.74-1.39,3.94-2.16,5.87-.34.85-.61,3.05-1.86,1.99ZM605.11,40.61c3.44-8.88,1.49-21.73-6-27.96-1.46,2.17,1.3,4.47,1.82,6.92.27,1.29.92,2.4-.22,3.54-1.12-2.19-2.64-4.04-4.43-5.72-.47-.44-2.58-2.78-2.38-.76,3.85,7.91,5.37,17.14,11.2,23.99ZM601.39,70.67c-1.17-8.86,6.53-19.65,2.48-28.2-1.3-2.74-3.79-4.08-5.08-6.54-1.37-2.61-2.07-9.09-3.55-12.6-3.81-9.07-9.34-14.42-18.21-18.67l7.08,8.33c1.84,6.84,7.51,15.11,9.13,21.58,1.39,5.53-.1,14.88,1.69,22.54.6,2.57,3.48,13.74,6.45,13.56ZM841.03,179.58c-4.86-2.04-11.03.37-16.21.02l-17.7-1.01c8.53,3.25,18.58,3.45,27.6,2.69l6.31-1.69ZM590.24,42.53c1.87-2.83,1.87-8.32.3-11.19-.95-1.75-2.74-2.8-3.55-4.33-3.39-6.36-3.47-15.06-12.56-16.69l4.47,6.03-6.61-2.72c3.65,5.96,4.62,14.57,9.22,19.65,2.7,2.98,6.88,5.12,8.73,9.25ZM655.56,71.14l2.01-3.93c-1.86.64-11.44,4.89-11.02,6.49l1.98,1.8-5.57,2.16,7.18-.58c-.65,3.43-5.66,2.57-8.66,4.13-2.28,1.18-4.08,3.04-5.99,4.72-.05,1.72,1.79.82,2.7.72,2.87-.33,6.54-1.1,8.5-3.41,1.42.64-.35,2.21-.99,2.78-3.79,3.36-8.88,2.89-13.3,4.72,5.39,1.24,17.01-.85,21.05-4.43,1.94-1.72,4.51-5.99,6.83-7.91l-5.59.57,7.2-7.91-6.33.09ZM667.87,131.48c.04.48,4.13,5.99,5.12,8.13,1.28,2.77,1.93,5.26,2.64,8.19,8.87-.35,15.87,4.47,23.31,8.49,4.52-.41,26.05-4.4,28.53-2.87,1.34.82,2.09,2.66,4,3.53,4.9,2.22,16.1-6.36,20.42-8.84,6.91-3.97,15.13-3.72,6.09-13.37-18.21-19.45-56.67-18.33-79.47-8.41-2.82,1.23-4.27,3.69-6.06,4.41-1.69.69-4.8-1.68-4.6.74ZM591.26,62.03c.57-6.74-1.35-18.96-6.35-23.76-1.79-1.72-4.13-2.52-5.82-4.48-4.46-5.15-4.92-20.76-16.58-21.25,2.54,4.71,5.92,9.28,6.06,14.92-2.27-2.95-3.04-6.28-5.56-9.3-2.18-2.61-4.59-5.15-7.73-6.62-1.1-.52-2.48-1-2.05.76,3.62,3.18,7.3,8.11,7.26,13.08-4.21-3.98-6.42-9.65-12.13-12.02l2.25,4.6-3.43-1.17c1.14,3.7,3.8,7.31,5.18,11.29,2.51,7.19.84,15.08,9.25,18.93,2.66,1.22,6.66.5,9.22,2.87,2.6-3.83.81-8.15.55-12.2,1.61-.24,2.5,8.27,3.15,9.81,2.65,6.3,10.18,12.59,16.72,14.53ZM628.79,76.88c4.49-3.8,3.74-17.69-2.93-18.14-2.62-.18.8,6.35,1.02,7.43.7,3.53.12,7.37,1.91,10.72ZM790.68,173.21c-19.4-12.93-40.2-13.03-55.29,6.13,1.5,1.38,1.54.8,2.77-.26,4.98-4.28,7.41-8.56,14.09-11.56,13.13-5.89,23.57,1.01,35.51,5.36.94.34,2.39,1.54,2.92.32ZM550.93,40.15c1.42-.22-1.28-10.76-1.74-12.03-1.87-5.14-5.22-9.56-8.03-14.18-2.31.97.42,4.38-.27,6.09l-7.91-7.2.78,3.63-14.74-6.37c-1.42,1.84-.87,1.17.19,2.17,10.24,9.69,19.52,20.43,31.71,27.87ZM533.98,32.34c-8.13-6.65-13.18-16.62-22.51-21.88-1.36,2.54,10.85,15.12,9.01,15.23l-6.15-3.45c2.56,5.76,7.75,9.65,13.8,11,1.78.39,4.85,1.17,5.84-.9ZM611.51,97.13c1.6-3.21-1.36-7.23-3.09-9.83-10.12-15.26-28.76-28.05-45.36-35.11-1.01,1.17,1.23,1.78,2.1,2.39,13.67,9.62,27.81,17.94,38.55,31.18,2.9,3.57,4.84,7.87,7.8,11.36ZM659.64,119.89c-6.05-3.24-9.95-9.6-16.51-11.72-1.58,1.42-.37,1.52-.15,2.29.46,1.64,1.46,4.64,2.85,5.61.62.43,10.01,4.37,11.17,4.74,1.55.49,1.86.88,2.63-.92ZM553.02,49.89c-10.27-5.84-20.16-11.36-31.08-15.88-1.36-.56-.96-1.31-2.06.72l10.38,9.87-5.38-1.39c-.43,2.94,4.36,5.07,6.78,6.33,5.49,2.87,16.79,5.6,21.38.34ZM562.14,56.84c-5.1-2.8-10.3.89-16.17.2-3.82-.45-7.3-2.31-10.85-3.12-1.27-.29-1.09-1.07-2.03.88,3.69,4.17,7.35,7.4,12.33,10.09l-10.24-.36c4.36,2.56,9.77,5.47,14.89,5.66,2.87.11,5.62-1.35,8.02-1.18,2.76.2,5.28,2.18,8.05,1.96,2.43-.2,5.71-2.93,8.11-3.69-2.46-3.96-8.02-2.74-8.43-7.12l-5.84-1.58,2.16-1.73ZM533.31,70.66l11.45,7.4c2.05,1.32,6.72,6.76,8.28,9.04,4.25,6.2,7.74,20.75,18.22,19.63s-4.44-10.01-3.03-15.57c3.61,4.26,6.46,11.52,13.03,11.76,1.41.05,2.56.39,3.22-1.26-3.46-2.24-8.55-5.76-9.17-10.11,4.37,5.47,10.28,10.3,17.68,8.29-2.99-1.84-8.53-5.08-6.46-9.43,2.72,5.38,9.28,9.22,15.37,7.85,1.32-.84-.34-3.65-1.48-4.17l-7.08-4.5c2.54,1.07,5.63,1.76,8.04,3.05,1.2.64,4.54,5.15,4.96,2.74-.84-5.98-6.22-7.83-11.42-8.84-4.08-.79-7.96.32-11.87-.48-.34-1.59,9-2.18,5.67-4.7l-13.53.67c-.29-1.77,12.4-3.25,14.09-3.99-3.36-6.14-11.49-8.48-17.76-5.66-4.42,1.99-6.4,6.26-10.14,9.07-1.37,1.03-4.84,3.53-5.46,1.22,3.41-.48,6.66-4.25,8.7-6.96.85-1.13.93-1.16-.39-1.8l-30.93-3.26ZM625.32,108.17l2.95,9.27,6.67-1.49c.3-.46-4.21-9.19-5.72-8.94l1.54,5.71-5.44-4.55ZM749.87,237.94l19.96-.33c5.38-1.77,7.3-6.99,11.8-10.23,2.01-1.45,15.97-6.87,15.79-7.91-4.68-.67-8.97-.1-13.27,1.89l4.92-5.19c-9.48-.1-15.78,6.07-23.57,10.22-2.46,1.31-5.78,1.68-7.66,2.82-3.45,2.09-4.74,6.32-7.98,8.74ZM624.02,119.89c2.54-.57-3.15-14.67-6.83-15.81-4.9-1.52-10.62,10.64-8.94,11.87s5.04-9.28,7.81-9.5c3.69-.08,7.16,13.62,7.96,13.44ZM709.53,180.43c13.35-5.84,13.46-14.23-2.38-12.5l2.38,12.5ZM655.5,171.68c6.45.32,10.79-9.46,11.77-14.94,3.38-18.93-15.14-35.86-33.67-32.25-1.43.28-12.95,4.08-7.16,5.19,1.65.32,3.28-1.3,4.79.12l-1.53,3.17,4.27.7-1.26,1.79c7,8.05,8.06,16.93,7.26,27.16,1.24,1.29,7.61.22,8.78-1.57l-1.65,4.16,5.51-2.43,5.33-6.26c-2.13,9.13-10.66,17.58-20.54,13.96-2.61,2.59,3.17,2.47,4.66,2.4,9.34-.39,15.04-6.62,18.77-14.76l2.7-12.67c3.13,9.93-1.19,19.04-8.04,26.22ZM798.27,226.29l2.27-2.71c-2.44.76-4.97.3-7.43.96-2.58.7-9.1,2.51-7.6,6.05,7.03,1.46,15.34,1.62,21.3-2.95l-8.55-1.34ZM815.68,233.37c-7.39-3.18-15.52.19-22.6-.12-3-.13-6.77-1.85-9.85-1.42-4.02.57-8.85,4.61-10.63,8.23l22.23,1.35c2.79-.59,4.69-2.99,7.38-4.13,1.64-.69,13.83-2.32,13.46-3.93ZM609.85,101.31c-.29-1.09-5.6-.33-6.71-.19-1.73.22-21.13,4.42-20.77,5.44,9.18,3.22,18.95-2.09,27.49-5.25ZM772.14,208.36c-6.86-3.07-11.96,3.97-15.99,8.5-1.39-.63.35-2.27.94-3.04,1.82-2.38,4.52-4.24,5.75-7.3-5.63.63-13.07,2.81-11.61,9.88l2.49.99c-4.53,3.57-7.12,9.26-3.59,14.46,1.3,1.26,4.3-2.95,4.94-3.77,5.33-6.84,9.12-15.01,17.07-19.72ZM821.89,241.58c-2.97-3.73-21.97-1.22-21.66,2.74,9.65,2.77,19.68,7.08,29.82,4.09l-14.7-4.8,6.55-2.03ZM776.62,214.39c-.25-1.68-8.77.98-10.1,1.84-8.2,5.32-9.19,15.29,1.57,7.3,3.3-2.45,6.38-5.65,8.53-9.14ZM699.37,186.43c2.96-2.36,2.67-4.95,2.3-8.44-1.23-11.62-11.24-20.71-22.96-21.15l12.31,8.49-12.04-4.15-2.63.94,6.62,3.35,4.97,6.23c-4.15-3.7-9.64-8.7-15.46-6.86,2.04,1.42,4.25,2.64,6.28,4.07.87.61,3.11,1.22,2.1,2.4-1.42-1.61-12.71-4.89-12.46-1.76l5.63,2.61c-1.55,1-2.98-.86-5.37.12-1.19.49-1.85.97-2.39,2.18l13.15,6.48,2.64-2.56c.98.58-2.4,5.98.45,6.58l3.23-4.19-.91,7.07,1.89,1.94,4.27-9.81c1.5,2.71.83,6.41-.59,9.04l2.18,1.43c3.37-4.06,4.29-9.08,3.95-14.2,2.36-.43,1.27,8.95,2.82,10.2ZM832.8,253.87c-.95-2.43-11.63-3.37-10.98-.83,3.28,1.88,7.55,2.72,10.98.83ZM615.94,117.82l3.09,4.09c2.15-.12,2.75-.93,1.99-2.96-1.51-4.01-5.86-3.52-8.47-.75l4.7,5.68-1.31-6.07ZM729.27,190.21c-1.1-2.11-4.39-.86-5.49.86,5.05,16.29-3.02,32.84-3.8,48.52-.14,2.74-.78,6.33,1.47,8.28l-6.37,1.39-8.27-3.01c.06,4.53,12.94,6,12.89,9-6.33,9.26-10.13,22.42-20.14,28.4-6.13,3.66-14.32,2.87-21.21,4.93-7.43,2.22-13.34,5.54-18.12,11.88,4.83-1.69,8.52-5.03,13.46-6.91,13.22-5.04,25.93-1.57,36.26-14.85,5.81-7.48,7.62-17.93,15.53-22.49,3.78.13,23.61,17.12,27.6,20.82,10.87,10.08,19.46,22.31,30,32.68l-10.23-15.29c-13.38-15.9-28.89-29.96-46.9-40.51l8.2-6.22c-4.15-.04-8.15,4.24-11.93.65,4.42-2.17,1.73-7.14,2.06-11.57.77-10.29,4.14-21.27,4.79-32.2.11-1.9.55-13.71.22-14.35ZM751.64,207.66c-.56-3.1-8.07,4.41-8.75,5.39-2.35,3.33-3.12,8.19-5.4,11.64l2.03-11.24c-1.17-1.01-1.77,1.23-2.39,2.1-4.22,5.99-6.39,12.28-8.27,19.28l3.22-4.19c.42,1.35-.05,12.34,2.25,11.92l1.78-10.87.98,6.79,1.62,3.78,6.35-17.89c1.18.52.19,1.97-.09,2.87-1.11,3.62-4.06,8.16-.94,11.67l3.72-2.75c-3.63-9.11-.09-19.91,3.9-28.48ZM840.27,264.98c-.09-.38-4.21-1.45-5.14-1.7s-2.91-1.89-3.16-.02c-.47,3.53,6.94,4.55,8.3,1.72ZM833.98,268.25c-5.33-1.35-3.79-6.48-6.36-9.13-3.04-3.14-9.4-5.94-13.57-3.78,3.52,5.96,9.46,6.62,14.17,9.7.63.41,1.98,1.44,1.12,2.28l-17.52-9.22c-.08-9.19-10.1-11.22-17.55-10.31-1.13.14-2.32,1.55-3.05,1.25-2.65-1.1-3.06-3.48-8.49-4.72-1.75-.4-15.64-1.17-16.37-.8-.69.34-1.04,1.31-1.42,1.99,6,11.55,15.31,3.62,23.94,8.23-1.96.82-4.36-1.14-6.82-.7-1.73.31-2.97,1.7-4.6,2.21l5.18,4.9c-8.89-3.54-16.53-9.54-23.43-16.04-2.49-.11-21.88,6.36-21.57,7.89l14.63.04-13.09,5.68c-.48.48.4.93.86,1.06,6.41,1.82,16.06-4.27,23.05-.78-5.49,1.36-12.96-.55-16.76,4.86,3.94,2.22,9.62,2.49,14.05,1.75,1.33-.22,9.52-3.91,10.1-1.83l-14.57,4.72c-1.45,4.19,4.33.92,5.46.93,3.07.02,15.92,1.1,18.67,1.8,5.15,1.3,10.25,5.39,15.85,2.69,4.27-2.06-3.26-1.62-4.2-1.8-15.52-2.99-2.35-12.49,5.74-11.76,9.97.91,11.56,10.23,20.4,12.08.97.2,2.04.59,2.78-.34l-4.21-4.82c5.09,3.9,12.74,7.73,17.59,1.94ZM553.11,91.86c-4.18-9.12-10.88-13.14-20.46-15.33-1.78.29-.79,1.39.14,2.18,3.46,2.92,7.96,4.67,11.93,6.68-.87,1.47-10.12-3.01-9.5.13,5.61,1.4,11.6,11.55,17.88,6.34ZM720.21,194.68c-1.46-1.39-1.23-.67-2.24-.12-.73.4-5.83,4.03-5.73,4.38l6.9,5.51,1.07-9.77ZM606.25,123.07c-9.98-9.24-26.48-10.68-35.14.99-3.77,5.08-6.21,17.56,1.83,6.8l.08,6.33c1.61-2.06,2.44-5.47,5.42-5.92l-2.7,6.62c2.42,2.4,2.61-3.01,5.44-2.76.37,1.82-2.68,4.36.19,5.35,2.64-5.12,6.23-8.57,10.81-11.85l-4.66-2.49c3.59-1.17,8.17,3.24,10.22-1.25-.13-.64-5.45-2.52-6.62-2.71-2.14-.36-4.7,1.12-5.86-.64,7.67-3.82,14.39,6.69,21,1.53ZM625.02,175.01c17.64-14.9,8.6-40.24-14.06-43.35-11.59-1.59-25.58,6.05-25.17,19.02,4.53-.41,3.72-5.09,5.81-8.22,3.94-5.91,10.74-9.17,17.69-6.69.85.3,4.48,1.7,3.53,3.07-8-5.87-21.63-.13-20.95,10.54,4.07-.08,5.02-4.1,7.1-6.91,1.22,2.15-3,5.79.34,7.54l3.61-3.94.03,4.25,7.91,4.61,4.55-3.92-1.21,7.57c5.36-1.8,5.47-8.23,4.57-12.73,2.85,2.63,2.14,6.96,1.31,10.21-.6,2.34-3.95,5.02-.83,6.85,5.33-4.77,8.16-10.44,6.11-17.53,1.8-.23,2.85,5.99,2.85,7.66,0,5.1-2.87,11.45-7.43,13.99l2.54.96,6.65-5.47c-1.83,4.36-3.54,7.87-7.15,11.08l2.19,1.42ZM558.09,114.97c5.88-1.04,13.1-1.4,17.97-5.14-3.31.33-6.9.92-10.1,1.84-2.35.67-6.02,1.72-7.87,3.3ZM512.81,87.78c4.66,2.58,7.85,6.41,12.46,9.15,4.49,2.67,11.38,4.22,15.45,6.82,2.57,1.64,4.06,4.05,7.62,5.85,4.5,2.28,9.78,2.66,13.69-.87.26-.7-7.29-11.47-8.32-12.29-2.99-2.38-6.87-.91-9.99-2.33-3.35-1.53-5.03-4.5-8.3-6.27s-8.28-2.37-11.92-2.03c1.37,1.58,3.8,1.99,5.77,3.16.83.49,3.11,1.36,2.11,2.45-5.14-1.98-10.95-4.69-16.57-4.67-1.01,0-1.28-.94-2.02,1.04ZM714.39,217.87c1.69-.41,3.6-2.83,3.79-4.61-1.21-6.85-8.28-3.06-9.94,1.8.73,2.04,4.28,3.26,6.15,2.81ZM638.12,167.77c4.07,2.88,10.33-1.19,3.34-3.67l-3.34,3.67ZM703.13,209.8l-.83-5.23c-.86,2.54-2.88,7.53-2.36,10.05.35,1.66,1.89,2.83,2.38,4.58,1.68,6.01,1.32,13.48,6.05,18.1,1.68-1.69.89-1.71.66-3.02-.98-5.61-2.73-9.05-.35-15.2l-3.94-2.93c.05-2.38,5.19-7.22,1.5-9.55l-3.12,3.21ZM649.74,230.8c9.83,2.65,19.96,2.19,26.96-6.25,18.68-22.52-6.19-51.64-32.47-41.66-7.76,2.95-16.94,10.36-15.88,19.4,3.47-6.29,8.53-12.92,16.16-13.64-4.97,3.78-9.36,7.43-10.33,13.99-.19,1.29-.68,1.22,1.05,2,3.26-5.75,9.25-13.05,16.68-11.2-6.06,3.32-14.79,7.82-12.47,16.02,3.75-4.64,7.92-9.85,14.51-9.47-5.25,3.9-10.55,6.43-11.01,13.82l6.99-5.94c.95,1.6-1.63,3.55-1.95,5.81-.4,2.85,1.68,4.04,4.38,4.02,2.44-.02,3.16-2.34,4.99-1.9-.94,1.77-3.07,3.76-4.91,4.42s-4.07-.83-5.49.36l8.4,2.15,7.43-2.37c-3.16,4.54-7.26,4.49-12.09,4.45-2.03-.02-2.36-.18-.41,1.05,6.31,1.7,12.34,1.28,18.06-1.85l7.34-5.78c-2.67,5.47-7.83,8.4-13.39,10.21l-12.53,2.36ZM820.03,283.32c-7.91-6.97-18.61-4.88-27.91-7.08-5.58-1.32-11.13-4.49-16.99-5.08-2.77-.28-13.38,1.19-14.49,3.58-.57,1.22.22,1.59,1.6,1.58,6.99-.03,11.29-4.16,19.78.21,1.83.95,1.78,1.26-.42,1.04-3.09-.32-14.29-.66-16.28,1.29-1.48,1.45,4.42,8.59,5.88,9.59,4.24,2.91,13.71.73,19.5,1.89,13.22,2.64,19.76,11.33,30.03,18.62,4.37,3.1,7.74,3.75,3.15-1.97-1.94-2.42-4.19-4.52-6.51-6.56.71-1.84,8.96,6.24,8.06,2.1-3.61-5.09-8.45-8.15-14.28-10.31,3.42-1.41,7.58-.05,10.99.82.83-1.23-1.49-3.01-2.32-3.49-5.23-3-16.04-5.4-22.07-4.91-5.1.42-10.84,4.16-15.49.43,9.86-6.4,24.1-2.22,35.14-.9,1.4.17,1.75,1.36,2.64-.85ZM563.02,120.26c-.4-1.75-1.37-.8-2.17.14-2.61,3.08-3.91,6.96-5.71,10.46,4.96,2.27,6.09-7.57,7.88-10.61ZM501.09,104.29c15.03,4.25,30.79,19.98,46.48,10.67-3.1-9.06-13.49-11.47-21.06-15.2-6.77-3.34-11.92-9.21-20.43-4.83,2.59,1.23,4.47-.62,7.46.7,1.67.74,3.62,2.19,5.16,3.28.87.62,3.11,1.21,2.1,2.39-5.15-3.07-11.69-2.96-17.49-2.93-1.93.68,1.06,1.53,1.66,1.81,3.43,1.59,7.18,2.55,10.26,4.87l-11.51-1.68-2.64.89ZM716.09,223.57c-.45-.87-1.93-1.47-2.93-1.01-3.89,1.77.56,12.97,1.78,12.7.53-1.53,1.42-11.16,1.15-11.69ZM697.87,212.85c-2.12-4.18-14.07,3.96-6.31,8.34l2.75-3.45c-.68,6.21-.86,7.52,4.68,11.4,1.91-.34-1.03-11.87-1.33-13.41-.19-.98.29-2.72.21-2.87ZM537.3,129.28c-3.11,3.74-6.3,9.74-9.08,14.03-.22.35.17,1.73-.44,2.32l.73.48,7.4-11.45c.1-.15,2.55-2.43,3.14-1.63-.36.42-6.92,9.65-3.29,8.34l4.78-7.37.15,2.18c4.07-.78,4.07-5.74,6.11-8.61,1.66,1.54-1.47,4.87-.27,6.1,2.75,2.84,8.92-10.15,6.69-12.23l-2.83-.83c-3.45,6.42-7.97,2.54-13.08,8.67ZM604.01,158.56c-29.07-13.36-50.54,29.63-20.93,44.74,28.74,14.67,52.49-30.23,20.93-44.74ZM572.26,151.37c5.16,6.96,7.36-.94,2.68-5.35-10.47-9.85-29.01-8.69-37.16,3.53-1.26,1.9-4.1,10.58-3.62,12.53,1.23,5.01,9.06,8.32,13.91,6.81.66-.21,1.13-1.62,1.47-1.68,1.45-.28,7.79,7.54,11.96-.79.92.16-2.48,10.2,1.07,6.43.97-1.03,2.86-7.01,4.13-9.01,1.19-1.87,5.82-6.19,6.2-7.24.53-1.45-2.47-3.46-.64-5.21ZM480.49,115.06l11.83.29c12.62,2.97,23.76,14.7,36.78,5.53-1.05-4.17-5.88-6.04-9.68-6.72-5.59-1-8.69,1.82-13.55,2.06-8.06.41-17.18-5.45-25.37-1.16ZM807.36,301.32c-6.5-5.01-18.54-8.76-26.7-7.34-1.33.23-4,.15-3.38,2.01.58,1.74,6.46,9.81,8.08,11.02,3.97,2.99,7.97,2.71,11.79,4.54,12.82,6.11,14.81,19,21.99,29.84.54-6.99-2.34-13.38-5.15-19.56l5.93,5.4c-.98-8.42-7.77-15.06-14.9-19.07l7.23,2.54c3.05,1.43,4.77,3.92,6.98,6.19.45.47,2.27,2.9,2.15.81-2.43-7.39-9.52-11.5-15.72-15.41l1.7-.98ZM508.09,151.78c12.39-3.17,17.42-16.6,25-25.73-15.54-1.92-31.35,6.7-40.11,19.1,4.59-1.03,8.92-3.37,12.23-6.74l-2.6,5.64c.1,1.73,10.24-7.42,10.86-8.69,1.7,2.01-4.83,5.27-1.14,6.59l10.03-8.19c-2.7,7.47-9.44,12.1-14.26,18.02ZM509.5,113.94c-5.3-5.78-14.86-10.21-22.54-7.26,1.6,1.25,3.71.11,5.5.44,2.66.49-1.88,1.47.51,2.41,3.44,1.36,9.5,3.41,13.03,4.39,1.18.33,2.41,1.2,3.5.02ZM654.35,246.36c-11.43,35.01,38.44,43.04,45.49,10.27,2.14-9.94-2.47-24.33-13.17-27.14-2.03-.53-5.53-1.32-5.26,1.9,1.33,1.14,3.51,1.06,1.57,3.08-2.44-1.42-5.47-2.36-6.82.84,2.06.2,3.86.71,5.75,1.62.94.46,5.01,2.42,4.33,3.83-6.75-4.21-18.43-3.45-20.4,5.66l7.36-5.65,7.69,1.78c-2.34.92-4.41-.94-7.12.89-4.65,3.15-6.08,8.34-3,13.04l6.74,5.86c-2.37-.69-4.21-.72-6.51-2.02-3.18-1.81-3.73-3.9-6.28-5.72.46,3.02,2.54,6.6,4.93,8.48,2.99,2.35,6.98,2.2,9.88,4.24-17.47,2.16-26.31-16.69-12.11-28.25-1.45-1.34-1.56-.83-2.77.25-8.88,7.87-7.02,22.65,1.99,29.53,2.36,1.8,5.13,2.06,7.11,4.16-9.36.13-16.68-6.93-18.69-15.7-.87-3.82.32-7.37-.7-10.98ZM717.05,316.24l12.19,7.88c.35.23,5.23,5.67,2.88,6.05-2.17-5.87-7.91-4.71-11.19-6.44s-12.07-26.91-11.43-32.28c-1.37-.14-1.28,1.91-1.37,2.84-1.2,12.65,9.46,27.42,13.63,39.7,3.92,11.53,4.38,23.43,11.77,33.74,1.6,1.87,1.55-1.76,1.48-1.91-.72-1.57-4.95-2.9-2.69-5.14l8.65,7.67c.26-3.3-1.53-6.45-3.77-8.73,2.07-1.74,5.58,4.39,6.64,4.3-1.47-6.53-7.64-14.15-15.06-12.94l-1.29-5.48c6.87-.17,12.49,4.4,17.43,8.65l-4.27-7.98c3.74,1.84,7.43,3.72,10.12,7.04.44.55,3.76,8.39,4.18,4.83.55-4.58-10.79-13.17-14.65-14.98-4.27-2.01-13.51-1.1-10.78-7.23l12.77,6.15-3.65-6.53c-1.53-5.5,2.11-11.24,8.09-8.42l1.86-6.11,1.91,9.44c.4.88,4.83,8.51,5.36,5.22.38-2.41-1.02-9.36-.68-13.22.57-6.56,3.94-11.22-.57-17.7-2.31-3.33-6.69-1.05-8.9,1.56-1.2,1.42-1.3,5.03-3.09,4.53,1.4-8.33,10.2-10.79,11.43-18.68.95-6.05-3.73-13.12-8.76-16.24l-.47,6.77-3.73,6.21c1.45-6.52,3.31-14.18-3.07-18.76-1.12-.81-1.18-.95-1.83.4,1.77,6.99,1.68,14.39-.21,21.35-1.11-9.23.3-19.79-6.47-27.23l.87,9.98c-.92.14-3.66-7.06-4.66-8.22-.75-.88-1.59-.78-1.79.38-.08.46,1.06,8.27,1.29,9.27.81,3.48,3.33,7.31,3.38,11.04l-6.9-12.83c-1.73-2.09.66,10.55,1.14,11.21l4.89,9.44c-4.75-2.68-6.54-8.4-9.55-12.26-.44-.56-1.62-3.18-2.59-1.33-.74,1.42,3.96,10.08,5.6,11.51l13.01,11.51c-8.59-4.49-14.77-8.82-20.73-16.53.67,5.18,4.76,10.97,8.25,14.77-.69,1.45-2.03-.37-2.74-1-2.24-2.01-3.39-5.32-6.13-6.32,1.02,5.15,3.91,11.38,7.96,14.83,4.59,3.91,10.88,4.97,16.07,7.99,1.26.73,2.41.53,2.42,2.68l-20.32-7.26-1.94,2.81ZM504.56,126.43c-1.24-6.56-10.5-10.4-16.47-8.55l4.43,2.86c-1.76-.94-12.92-2.17-12.68.19l5.14,1.75-7.53,1.93,27.11,1.81ZM772.22,318.39c-1.76.31-5.54-19.14-7.02-21.71-.89-1.55-7.01-9.57-8.96-6.96-3.34,8.4,1.77,14.1,2.73,21.66.44,3.4-.23,6.73.22,10.13.94,7.21,5.02,13.66,11.12,17.65l-.06-4.75c.51-1.85,6.16,11.47,8.45,11.22l4.14-8.83c.86,4.82,2.75,9.85,6.9,12.83-2.16-10.54,1.08-20.72-4.31-30.56-1.5-2.73-9.41-14.1-11.93-14.04-4.4.1-.37,10.7-1.27,13.36ZM814.4,351.96c1.04-6.15-1.18-12.48-3.78-17.95-1.4-2.94-6.23-12.79-7.75-14.87-3.07-4.21-6.63-4.14-11.2-4.9-1.07,1.07-.64,1.71-.16,2.88,2.2,5.29,9.38,12.96,12.55,18.94,2.58,4.86,4.64,10.57,5.59,15.98,1.68.04.81-1.79.7-2.69-.44-3.55-2.03-7.06-1.99-10.7l6.04,13.32ZM500.95,130.4c-.28-1.58-17.42-1.46-19.65-1.16-3.78.51-8.16,1.51-10.79,4.51.44,2.25,11.02-3,11.7-.29l-4,2.13,12.9-2.12c.86,1.26-6.48,3.79-2.87,4.41,2.74.47,13.17-4.83,12.7-7.48ZM625,211.94c-33.98-16.16-53.07,39.12-15.56,46.08,27.7,5.14,42.27-33.37,15.56-46.08ZM803.77,358.69c1.22-1.18.35-2.26.2-3.54-.73-6.11-4.6-24.44-10.22-27.1-3.96-1.87-3.67,7.38-3.45,10.31.45,6.12,2.73,11.45,6.82,16.02l.5-8.05,6.16,12.35ZM565.52,194.17c-4.52-9.89-3.12-14.67-15.53-17.61-25.05-5.94-42.54,27.85-18.77,41.5l.97-3.06c-3.54-2.83-9.2-7.59-7.52-12.69,1.3,3.14,7.1,9.67,10.49,8.9.88-.2,1.58-.98.95-1.5-2.71-1.37-4.76-3.85-4.37-7l6.17,5.02-1.31-6.07,4.44,2.85-.57-5.59c4.04,4.12,10.23.06,13.49-3.17.37-1.24-2.04-4.98-3.07-5.8-3.09-2.47-6.37-.68-8.87-3.13,6.43-1.61,13.3,2.15,15.48,8.43,1.82-2.98-1.94-7.33-4.15-9-6.28-4.74-15.03-3.92-20.73,1.23l-6.08,8.7c4.08-22.64,30.13-20.66,36.47-.52l2.51-1.47ZM500.8,171.15c4.29-5.12,12.17-7.28,18.41-4.6,1.06.46,14.4,9.72,11.6,3.57-6.91-8.52-21.8-10.33-30.82-4.23-19.47,13.17-10.23,43.12,12.1,45.98l1.45-2.1c-8.87-3.4-18.97-5.92-20.48-16.92,3.39,2.25,5.04,6.1,8.73,8.36,2.49,1.52,6.51,2.56,9.47,2.36-4.13-3.7-10.23-6-10.9-12.29,2.68,1.47,3.8,5.18,6.57,6.9,1.63,1.01,3.41,1.26,5.25.74-1.85-2.15-4.97-3.21-5.21-6.51l5.4,2.97c2.34-2.34-2.98-3.78-2.05-6.55l4.2,1.18c2.14-6.83,7.04-12.01,12.13-16.77-3.82-5.49-11.79-6.91-17.83-4.77-1.05.37-7.62,4.85-8.01,2.67ZM575.71,207.27c-19.41-10.69-45.19,8.94-36.57,30.4,5.64,14.03,25.32,18.5,36.76,9.28,8.84-7.12,4.11-9.84,5.98-18.45.75-3.46,3.53-7.76,3.04-10.83-.54-3.4-6.22-8.75-9.22-10.4ZM677.52,351.43c2.29-9.46,4.44-19.03,8.05-28.12,3.92-9.87,8.2-16.43,13.89-25.3,1.62-2.53,6.21-4.95,2.34-8.39-12.41,11.25-18.71,29.79-22.32,45.81-1.1,4.88-2.89,11.22-1.96,16ZM773.61,348.64l-15.38-18.33c-.48,6.69,6.94,18.33,13.4,19.4,1.33.22,1.23.55,1.98-1.07ZM624.06,280.19c8.24-4.03,16.53-12.1,14.34-22.14-2.35,9.42-6.82,13.35-13.29,19.64-.66.64-2.54,1.77-1.05,2.5ZM706.05,333.22c-.47-5.94,1.56-11.6.95-17.69-.17-1.68-2.38-11.81-4.04-11.53l-.03,14.63-3.62-6.54c-2.59-2.46-1.9,6.11-1.62,7.35.71,3.12,3.65,6.32,3.67,9.7-3.33-2.52-4.34-8.1-8.67-9.27-1.01,7.63,6.49,11.96,9.03,18.42-3.71-1.84-5.26-6.06-8.74-8.31-1.49-.96-2.05-.29-2.3,1.14-.41,2.44,8.85,11.56,10.89,13.89-.68,1.44-2.05-.37-2.75-1-2.59-2.33-7.71-10.15-11.49-6.13,3.85,3.03,7.36,6.36,10.46,10.16,2.05,2.52,10.4,14.29,11.36,16.65.79,1.93-.19,3.78,1.18,6.11,2.84,4.82,10.33,8.82,11.58,15.64,1.7-5.38-.56-11.5-5.55-14.07l3.34-5.16,6.52,12.58-.87-9.98,10.62,9.48c-2.01-11.42-13.8-16.87-13.96-29.46-2.42-2.44-3.96,4.05-5.9,3.5.66-4.04,4.57-16.96,1.76-19.78-1.45-1.4-1.49.07-2.28,1.12-1.55,2.05-1.92,3.76-2.95,5.74-.45.86-.75,3.08-2.05,2.03,1.84-6.16,5.15-12.87,2.33-19.28l-1.27-.98-2.23,1.07-3.37,9.97ZM681.47,301.61l6.02-4.49c-7.56.32-15.32,3.71-18.63,10.99l.06-4.13c-4.06.38-6.44,3.92-8.3,7.18l3.63-.79-4.54,5.44,4.37-.31c-3.91,3.86-7.22,5.76-7.63,11.83l3.15-.05c-1.05,2.31-3.64,4.68-4.45,6.91-.24.66,1.1,1.36.86,1.7-3.23,4.65-8.28,7.6-9.26,14.51-1.3-1.25-.19-2.34.21-3.54,1.49-4.42,4.34-8.71,6.04-13.38,2.27-6.23,4.19-13.76,2.63-20.28-1.26,1.88-7.94,5.67-2.24,5.88l-5.5,6.91,2.68.69c.11,1.05-7.8,6.32-3.04,9.55l2.91-1.25c-5.83,5.03-5.48,13.28-9.48,19.58-1.72,2.71-4.71,4.12-6.49,6.75,1.38,1.52,3.17-.2,4.55-.93,10.1-5.32,13.69-16.12,21.56-24.12,8.16-8.3,19.19-9.67,20.44-23.46.07-.79,1.09-2.19-.54-2.39-2.14-.27-9.11,4.7-10.71,6.41l-5.33,6.25c2.59-4.46,5.4-8.38,9.21-11.87,4.4-4.02,10.89-5.39,13.78-9.92l-5.97.32ZM632.35,262.51l-1.47-.94c-.77,5.26-5.35,8.43-8.11,12.55,1.52.36,4.45-2.45,5.28-3.47,2-2.44,3.49-5.09,4.29-8.14ZM645.43,273.07l-1.47-.94c-.46,3.1-3.74,8.45-6.49,9.77-2.25,1.08-6.78-1.99-7.12,2.38l3.91.43c.53,3.67-11.87.36-11.05,3.32l6.38,3.09-7.29,1.56,11.5,3.26-7.29,1.55c4.07,2.32,8.63,3,13.19,2.26-4.27,3.68-10.33,2.08-15.11.71.19,5.23,8.02,4.93,11.77,4.46l-7.27,3.16c.76,2.05,4.68,1.38,6.6,1.13,11.56-1.5,23.68-16.38,20.35-28.23-1.67,5.21-3.25,10.27-7.87,13.76-1.94-.32,6.85-10.19,2.57-8.81-2.15,2.52-5.13,6.78-8.69,6.96,3.88-3.87,5.94-7.5,7.48-12.74.3-1.02,1.41-3.51.33-4.2-3.46,6.22-7.13,14.24-15.42,14.12,6.44-4.69,10.17-8.75,10.97-17ZM579.8,290.34c1.36-.48,7.53.92,10.62.55,9.85-1.18,16.87-7.34,18.92-17.07-.3-1.76-1.39-.8-2.18.14-1.77,2.1-2.85,4.88-4.85,7.11-4.19,4.68-12.24,7.99-17.93,3.83,1.47-.81,3.25-.24,5.23-.77,3.79-1.01,10.3-3.81,12.47-7.14.85-1.3,2.59-6.98.14-6.72-.59,4.65-5.36,9.27-10.11,9.17,3.81-3.2,5.91-5.21,6.66-10.35l-3.66-.85-5.78,4.16c1.15-4.57,4.15-6.63,8.41-8.16-2.28-1.94-5.39-.6-7.85.45l-7.64,7.32c1.49-5.91,4.62-8.17,8.56-11.95.76-.72,1.93-2.1.14-2.31s-7.66,3.9-9.02,5.41l-6.98,10.42c.57-8.99,4.87-12.82,10.2-19.15,1.12-1.34.53-1.17-.74-1.95-3.9,2.96-9.3,6.4-11.93,10.63-1.88,3.03-1.8,7.01-2.68,10.29-2.66-5.41,2.28-10.8,2.58-16.13-5.49,4.8-8.85,14.83-4.62,21.35,1.54,2.37,9.53,10.22,12.04,11.73-.43.15-1.71.79-1.69.99,10.68,11.75,37.41.43,35.76-15.62-1.99,3.35-3.4,6.95-6.13,9.92-5.92,6.42-20.44,9.24-27.94,4.71ZM514.39,219.76c-18.12-10.07-37.87,2.65-37.03,23.53.23,5.64,2.21,14.24,8.3,16.03l.12-9.88,5.03,11.63c.77-4.26-1-7-.26-11.71,1.16-7.4,4.86-13.49,11.57-17.15l9.97-2.42c-8.99-4.08-19.31,1.54-23.28,10.07-1.06-1.15.94-4.77,1.58-5.77,3.89-6.12,11.64-10.97,19.07-9.21,2.72.64,5.28,3.3,7.72,1.92-12.82-9.52-27.81-1.52-34.49,11.2-.99-.73.87-4.23,1.31-5.04,4.55-8.34,11.54-13.23,21.04-13.85l9.35.65ZM652.52,309.09l-11.4,4.65c-1.92.92-6.47.27-6.42,2.67l5.49.42c-3.97,1.59-8.74,2.29-10.63,6.73,10.58,1.05,18.17-5.61,22.96-14.48ZM543.17,253.03c-8.71-4.83-14.8-13.12-14.85-23.21-14.54,1.44-27.65,20.45-16.27,32.74,2.69,2.9,10.35,9.16,13.74,11.68s7.58,6.45,10.86,1.81c-.3-1.21-6.74-.84-3.95-3.6,1.42,2.95,16.45,2.28,15.86-.23-3.36-.19-6.59-.77-9.69-2.19-1.17-.54-5.5-2.52-5.03-4.18,1.78,2.81,17.53,2.06,17.07-.5-7.84.56-18.93-2.28-21.37-10.67,5.06,3.72,9.86,6.16,16.23,5.86,1.26-.06,1.83,1.16,2.62-1.02-8.05-1.34-17.72-5.64-18.74-14.74,4.3,2.4,7.64,9.77,13.52,8.24ZM491.33,210.08c-15.96-5.57-29.46,19.25-22.62,32.54l2.56.06-.86-9.98,2.73,2.27c2.67-7.54,6.73-13.63,12.41-19.2-2.99-.11-5.79,2.35-7.25,4.73-1.19-.97,1.72-4.55,2.37-5.3,2.83-3.28,6.86-3.68,10.67-5.11ZM676.99,331.19c-1.31-1.31-2.18-.31-3.46.14-8.03,2.78-16.23,9.52-20.19,17.03,1.22.55,2.28-.51,3.28-1,7.22-3.56,16.59-8.96,20.38-16.17ZM563.4,259.83c-2.71-1.04-3.31,7.01-3.34,8.34-.07,2.86.09,4.72,1.62,7.28l2.17-1.72c-1.2-2.27,1.25-13.24-.45-13.9ZM704.47,368.55c-2.52-6.31-5.99-15.31-10.56-20.95-2.21-2.72-8.87-8.61-9.06-1.87-.04,1.62,7.94,10,9.35,12.31-.74,1.49-1.94-.4-2.7-1.01-2.74-2.18-6.69-7.42-10.27-3.21,5.26,4.79,10.62,9.03,14.69,14.98,1.54,2.26,1.99,4.93,3.41,6.9,4.36,6.04,11.44,10.63,12.95,19.16,2.24-3.73.53-8.02-.88-11.57l6.19,6.62c2.52-9.38-11-16.04-13.12-21.36ZM604.62,302.19c4.4,1.73,8.72.19,8.08-5.23l-8.08,5.23ZM594.19,306.96c4.77,6.75,21.8,3.51,22.28-4.46.21-3.54-4.07,1.9-4.62,2.27-7.38,5-11.13-1.49-17.66,2.18ZM614.1,316.7c1.12-1.84,2.49-3.55,3.42-5.51.47-.99,2.3-4.23,1.31-5.04-3.87,5.27-8.12,9.11-14.98,8.79-8.05-.38-12.77-5.6-19.92-8.31,1.54,5.94,8.57,10.2,14.07,12.24l-8.3-1.66-6.16-3.5c-.5,1.46,2.84,4.02,3.81,4.63,6.04,3.75,13.29,3.65,19.95,2.35-7.37,5.55-17.13,3.58-24.41-1.11,2.21,9.5,14.62,7.91,22.07,7.98-7.99,7.45-15.93,2-24.05-.87-1.29-.46-.97-1.35-2.04.74,9.23,13.96,29.78,7.59,38.25-4.02,1.36-1.86,5.28-8.35,4.1-10.47s-5.54,4.7-7.12,3.76ZM508.28,235.71c-6.55-3.57-12.89,5.23-14.94,10.52-.65,1.68-1.35,9.53,1.07,9.31-.7-9.85,6.43-15.05,13.88-19.83ZM648.42,381.85c2.22-3.13,2.96-6.47,5.23-9.68,3.98-5.62,13.74-11.22,16.3-15.6,1.97-3.37.59-9.07.51-12.82-12.61,5.39-24.11,16.24-31.19,27.99l14.7-11.43-5.23,8.13,5.54-3.74c-2.53,4.97-6.84,11.5-5.86,17.16ZM626.71,347.39c5.16-5.94,9.03-15.47,14.09-21.79-7.82-1.08-15.12,6.87-21.57,10.66-1.45,2.13.45,1.38,1.43.7,2.62-1.82,5.25-5.21,8.76-5.11l-7.67,8.66,7.76-2.3c-5.37,3.42-9.04,8.68-12.24,14.07,1.49,1.51,1.35.52,2.27.12,1.54-.68,6.15-3.83,7.17-5ZM631.18,351.84c2.92-4.3,8.78-6.24,11.22-10.95,1.22-2.35,2.23-8.55-1.02-9.69l-3.34,5.18c.7.09,2.87-.34,1.23,1.28-3.18,3.13-7.88,5.86-10.6,9.93l2.93.34-12.49,12.87c3.23-.17,15.39-5.92,15.23-9.01l-3.16.05ZM503.02,243.82c-2.28-2.42-4.18,3.52-4.7,5.15-.68,2.11-1.45,10.28.9,11.25,1.48.61,1.51-.32,1.56-1.59.19-5.05-.86-9.88,2.24-14.81ZM683.26,360.39c-4.53.83,8.34,14.59,9.12,15.53,2.09,2.51,2.7,7.69,8.02,6.54,1.82-1.83-6.17-11.88-7.76-13.59-2.86-3.09-6.36-5.57-9.39-8.48ZM544.14,281.27c-8.51,1.83-15.53,9.58-18.06,17.73-2.76,8.86,2.04,9.32,6.11,15.86,2.53,4.07,3.53,11.83,6.53,13.93,5.68,3.98,18.87,2.11,24.56-1.29,25.13-15,6.18-51.68-19.15-46.24ZM700.65,399.9c.47-3.37-.15-7.73-1.92-10.71-1.42-2.38-14.86-18.82-16.31-19.48-.79-.36-3.5-.93-3.9-.35l10.9,13.87c-.71,1.48-1.85-.41-2.51-1.05-2.35-2.25-4.04-5.02-7.34-6.38-6.26,1.17,9.71,23.76,9.3,26.95,2.29,3.18,1.25-6.25,1.02-7.22-.52-2.22-2.41-4.11-2.33-6.17,1.95,1.25,3.25,3.13,4.36,5.1.42.74,3.35,10.03,3.87,8.08l-.11-6.34-2.52-7.4,7.48,11.1ZM707.98,401.51c1.56-.37.26-19.08-5.86-18.45-3.38,1.28,4.35,16.24,5.86,18.45ZM660.11,397.79l9.79-15.14c2.07-3.2,1.34-17.88-.67-20.85-.87-1.29-1.28-.21-1.85.12-3.12,1.76-5.2,4.79-6.92,7.82l1.95.2c-2.39,4.8-8.61,10-6.86,15.47l8.42-8.17-3.75,9.08,4.58-2.26c-1.92,3.88-6.03,9.3-4.68,13.73ZM642.54,345.57c-.84-4.44-5.35,6.64-5.72,7.16-2.16,3.02-6.97,5.8-10.16,7.71.49,2.23,8.2-2.46,9.15-3.27,3.81-3.26,4.79-7.16,6.73-11.59ZM505.9,275.03c6.56,2.42,10.85,4.98,13.99,11.3.92,1.86.31,5.71,3.07,4.42,3.01-2.82-.55-7.75-2.55-10.26-12.51-15.63-37.13-17.52-45.82,2.83-2.94,6.89-.73,16.87,2.44,3.93l5.27-6.54c-3.41,8.04-5.19,17.47,2.54,23.63-2.54-10.26-6.36-17.64,2.97-26.16,1.99-1.82,7.35-4.43,9.07-2.19-13.38,2.14-16.97,20.84-7.16,28.91l1.93-1.37c-2.75-3.32-6.74-8.83-4.07-13.12,1.68,4.26,1.08,9.33,6.26,11.37l-.84-6.81c1.33-.18,1.55,5.05,4.76,6.06.42.13,8.22-.8,8.74-.97,3.58-1.18,4.59-4.73,5.09-8.13l-2.64-8.64c4.27,2.77,6.84,6.71,5.45,11.86-.62,2.28-3.83,4.66-1.07,5.62,5.98-4.23,4.65-13.1.51-18.23l-7.94-7.51ZM471.4,250.61c-6.04-1.36-13.21,3.24-15.98,8.51-1.16-1.08,1.66-4.33,2.36-5.33,1.36-1.93,2.89-3.23,4.33-5.01-16.07,2.77-23.11,25.44-11.19,36.75,2.19-.42-3.56-9.97-.65-11.94.56-.18,3.19,10.04,6.22,9.79-1.16-3.38-3.28-7.26-1.36-10.83,1.65,5.01,5.07,13.44,11.39,13.12.96-1.42-11.14-8.1-6.38-11.98l4.12,5.79c-.03-2.56-2.34-5.02-.35-7.55,1.1,2.91,1.45,5.84,4.73,7.24l.14-6.7,2.99,3.49,3.82-5.91-4.37.31,6.5-5.22-3.46.14-5.99,3.16c1.93-4.21,4.96-6.21,9.15-7.69l-3.68-.88-8.94,4.22c.36-4.56,4.07-5.39,6.09-8.62l-6.48,2.43-5.74,4.32c1.1-3.7,2.95-6.13,6.17-8.25,1.16-.76,6.81-2.34,6.58-3.4ZM675.27,418.07c2.65-11.68,1.3-24.06-1.6-35.58-8.02,3.86-13.47,16.36-10.27,24.77l4.84-11.53.93,13.16,2.59-5.65,3.5,14.83ZM687.7,416.68c2.16-.74-.2-8.73-.73-10.33-.74-2.25-5.8-13.65-8.13-13.2-2.17,2.28-.12,4.85-.1,7.33.07,7.21-1.5,12.83,1.29,20.08.45,1.16,1.81,4.49,3.39,4.36l-1.81-8.52,3.96,3.6-.87-8.4,3,5.07ZM537.06,340.23c-3.16,12.97.66,25.7,13.48,31.66,18.11,8.43,41.17-14.25,28.49-31.76l.89,9.66c-.74,7.11-5.29,13.01-11.56,16.23-1.69.87-6.02,3.28-6.77,1.07,8.52-1.32,16.37-9.12,15.84-18.04-.16-2.68-1.37-8.82-4.51-9.21,1.85,6.68,2.59,14.4-3.89,18.95l2.93-11.75-1.67-3.13c-.27,4.76-2.53,10.19-7.27,12.04,7.75-10.65,1.09-18.48-7.54-6.97-1.11-.53.45-3.81.8-4.35,1.14-1.78,2.59-2.59,3.72-4.24-7.6.15-9.77,8.18-8.33,14.51-3.59-4.24-2.57-10.18.77-14.15-.46-3.51-8.19,3.65-6.24,11.2.52,2.04,2.35,3.28,2.09,4.95-5.13-2.75-4.78-8.54-6.04-13.32l-.37,8.03,2.8,9.25c-6.77-4.31-5.9-11.31-6.61-18-.12-1.15,1.24-1.85-1-2.62ZM520.16,317.75c-15.53-16.62-40.2-9.32-39.8,14.59,4.16,3.5,7.95,5.38,11.59,9.6,5.85,6.79,2.4,11.32,13.32,11.67,5.72.18,11.55-1.63,16.06-5.19,20.95-16.53,2.4-48.38-22.07-42.09,4.08.88,7.58.25,11.61,2.28,2.11,1.06,4.57,2.81,6.36,4.36.78.67,3.42,3.54,2.92,4.77ZM480.2,311.09c-8.45-20.78-35.28-25.68-45.59-3.6l-.98-1.7c-5.46,7.97-4.46,19.91,1.48,27.35,2.14,2.69,4.97,6.38,8.96,5.06l-7.72-7.87c-.1-1.02-4.31-7.02-2.23-7.47,2.49,4.54,9.1,15.99,15.02,10.77l-5.69-5.77c3.51,2.59,7.76,4.94,11.99,2.51l-6.91-5.51c5.02,3.93,6.95,4.1,11.85.33l-2.02,3.91c6.4,5.04,4.26-4.44,8.69-6.94l-.19,5.11,5.05-6.15-2.82,7.59c5.67,2.81,5.78-7.12,7.72-11.56.84-1.91,1.99-3.03,3.22-4.58l.18-1.5ZM519.05,360c2.56.32,6.32,1.14,8.43-.76,4.81-4.34-8.69-3.22-8.43.76ZM536.5,370.24c-2.7-2.81-5.2-.62-8.07-.6-4.84.04-7.24-.07-11.87-1.94-2.1-.85-5.4-4.95-6.46-1.97,5.76,4.22,11.67,7.51,19,7.05.92-.06,7.78-1.3,7.4-2.54ZM493.78,384.49c12.96,20.58,41.07,12.86,46.07-9.56-2.26-3.62-4.39-.76-7.19-.45-10.31,1.15-18.89.74-27.16-6.49,1.51,9.23,12.75,11.98,20.64,10.19.24,1.27-5.19,2.22-6.18,2.28-7.83.52-12.43-3.78-18.28-8.16,3.09,9.57,13.32,13.04,22.6,12-5.23,4-13.63,1.95-18.86-1.07-1.89-1.09-3.53-4.03-6.09-4.07,2.1,5.21,7.78,9.12,13.08,10.57,1.02.28,11.01.07,8.08,2.05-3.66,2.47-13.28.04-16.97-2.02-3.34-1.87-5-4.08-7.67-6.05-1.41-1.04-1.26-.59-2.05.76ZM479.2,338.67c-17.8-9.6-39.02,2.39-36.95,23.48,2.97,30.39,46.59,33.21,49.94,1.37,1.02-9.73-4.38-20.21-12.98-24.85ZM423.98,332.04l-7.88,12.19c-.2.31-1.32,6.26-1.46,7.31-1.73,13.69,6.94,28.05,21.69,27.78,0-2.21-1.07-2.09-2.51-2.92-5.11-2.94-10.95-4.5-13.17-10.89-.15-.42-.82-2.42.23-1.96,2.61,3.68,8.7,10.51,13.13,6.41-4.69-2.68-8.78-5.36-10.28-10.84-.17-2.05,1.82.34,2.33.77,1.41,1.21,5.81,6.5,7.12,3.25-6.86-4.97-1.89-13.54.21-19.78-.88-.86-1.94-.89-2.88-.11-1.74,1.44-2.52,5.63-4.83,5.59l3.43-9.33c-.1-1.43-.93-2.07-2.26-1.47-1.61.73-1.92,3.92-3.48,3.02l2.7-6.63-2.11-2.41ZM437.36,346.97c-1.65-1.94-4.01,1.13-4.75,2.56-.46.88-2.32,8.86.03,8l4.72-10.56ZM841.9,163.81c4.02,13.63,23.3,27.75,27.8,7.07l-7.96,5.85c-11.73,5.06-22.41-18.17-10.57-22.58,6-2.24,13.4,5.26,16.98,9.42-2.61-13.91-31.61-17.93-26.25.23ZM807.2,153.79c-7.21-2.07-14.27-6-21.54-8.44-.98-.33-2.37-1.59-2.92-.35,13.06,6.39,26.08,14.7,41.13,10.91-5.65-.88-11.02-.49-16.67-2.12ZM852.46,157.34c-6.36,5.55,4.29,21.49,9.16,11.45l-2.17,1.65c-3.9-1.59-6.16-4.75-3.79-8.65l-2.52,1.5c-1.55-8.94,7.08-5.61,9.87.1,3.69-.67-6.03-10.01-10.55-6.06ZM591.47,200.91c1.24.08,9.08-.24,8.76-2.12-10.49.9-21.93-2.3-24.58-13.8-1.69,10.06,6.64,15.34,15.82,15.92ZM605.88,165.79l5.45,6.77c2.43,3.65,2.2,8.32,1.31,12.44l-3.93,8.78c10.05-7.69,8.38-22.45-2.83-28ZM580.61,182.97c-4.98,7.25,6.81,15.14,13.19,9.57-6.67-.1-11.29-3.06-13.19-9.57ZM607.18,179.13l3.75-.14c-.24-3.16-1.17-5.05-4.23-6.39l.47,6.53ZM445.55,355.41l10.03-8.05,13.19-5.2c-11.41-5.06-20.34,2.13-23.22,13.26ZM483.67,361.22l-6.02,8.95c-4.36,4.16-10.08,4.54-15.74,3.71l-8.1-3.71c10.25,13.17,28.22,7.49,29.86-8.95ZM488.17,359.93c-1.65,2.32-1.44,5.48-2.82,8.23-3.55,7.09-10.31,11.64-18.3,11.88l-10.2-1.62c14.21,9.87,33.23-1.48,31.33-18.49ZM455.75,352.58c4.84-1.98,8.13-2.69,13.37-2.87-5.54-3.09-9.94-2.91-13.37,2.87ZM635.88,227.09c-1.16-3.1-5.6-8.69-9.01-7.92-2.29.52.27,2.24.55,2.71,4.25,7.01,6.56,12.55,3.62,20.88l-2.77,6.63c5.8-6.27,10.92-13.47,7.61-22.3ZM598.89,247.76c1.23,1.19,4.04,3.67,4.01.41-6.84-6.37-8.52-15.86-4.93-24.4l4.71-7.67c-9.47,7.26-12.93,22.78-3.79,31.66ZM606.41,243.59c-1.52-2.9-4.12-5.58-4.62-9.19l.28-9.28c-4.95,6.84-2.89,17.82,4.69,21.88,1.38-1.41.28-2.19-.36-3.42ZM620.84,223.65l5.3,8.08-.91,9.41c6.46-7.21,5.29-14.75-4.39-17.49ZM529.63,303.96c.5,2.54.95,1.33,1.27-.27,1.7-8.37,5.41-13.83,14.74-13.92.89,0,8.79.99,9.21,1.19,4.98,2.32,8.61,12.11,5.89,17.2l-3.32,5.42c5.41-2.74,6.67-8.33,5.48-13.89-4.3-20.08-33.47-15.93-33.27,4.28ZM568.73,307.02c.48-1.91.02-14.3-2.32-13.81,1.14,11.18-2.01,20.76-12.06,26.76.93.77,2.21.96,3.35.78,5.39-.82,9.81-8.85,11.03-13.73ZM570.59,312.67l-7.1,6.9c-4.2,2.99-8.89,5.1-14.07,5.59-2.38.23-4.78-.99-6.7-.15,11.17,5.37,23.06-1.65,27.87-12.34ZM660.39,190.03c1.75,1.77,4.69,1.69,7.01,2.96,5.51,3.01,7.38,6.54,8.08,12.56,6.64-9.74-5.84-18.78-15.09-15.52ZM519.89,334.36l-8.43,6.59c-4.69,1.5-9.72.88-14.4-.4-.54,1.5,2.76,3.92,3.78,4.49,1.78.99,6.92,1.68,8.91,1.25,5.75-1.23,9.42-6.33,10.15-11.93ZM487.07,323.59l5.92-6.46c3.96-2.97,8.61-3.6,13.39-2.83l9.86,3.03c-9.25-10.07-24.08-6.15-29.17,6.26ZM525.28,335.75l-5.86,6.74c-4.2,3.57-9.11,5.65-14.56,6.24-1.79.19-3.66-.96-4.75.05,10.37,4.7,22.24-2.32,25.17-13.04ZM544.74,232.02c-.95-3.01-.21-6.5-2.23-8.74-8.98,11.22,5.98,26.13,17.9,24.15-7.31-2.4-13.34-8.05-15.67-15.41ZM573.35,212.84c-.19,2.38,2.04,3.71,2.91,6.05,3.38,9.09-1.09,20.02-8.06,26.23,12.23-3.07,17.25-26.01,5.15-32.28ZM550.23,230.2c-1.21-3.82.73-6.93-.2-10.45-5.19,5.92-4.72,13.69,2.72,17.23.67.32,2.47,1.1,2.87.02-2.5-1.54-4.51-3.99-5.4-6.8ZM766.85,265.15l2.38,2.42,11.31.69c-4.17-2.61-9.23-1.29-13.69-3.11ZM440.23,306.92l6.87-5.02c4.62-3.03,9.82-2.72,14.98-1.33l9.58,4.7c-8.36-11.1-24.89-11.78-31.43,1.65ZM694.08,244.83c.93,7.09-1.23,12.76-5.59,18.37,8.38-.97,13.44-13.27,5.59-18.37ZM685.87,233.22l-1.43,2.21,7.39,4.78c.37-3.65-3.41-5.38-5.96-6.98ZM649.59,130.86c-1.49-.49-7.22-1-8.34-.34-2.58,1.52,4.26,2.42,5.06,2.83,6.4,3.25,9.31,6.98,11.51,13.64,3.29-7.08-1.26-13.83-8.23-16.13ZM501.89,179.19l8.59-5.89,8.38-.93c-7.33-4.2-13.68-.39-16.97,6.82ZM516.16,241.12c-6.81,6.01-7.47,16.54,1.04,21.29-3.13-7.75-3.9-14.94,1.63-21.97-1.89-1.72-1.51-.34-2.67.69ZM540.57,162.3c1.74-2.03,1.43-4.65,2.89-7.03,2.42-3.94,7.18-7.3,11.54-8.69,2.54-.81,5.28.13,6.9-1.9-11.44-7.93-23.75,5.92-21.34,17.62ZM550.58,154.11l3.13-1.68,8.28-1.4c-4.3-3.18-9.35-2.09-11.41,3.08Z"/><path class="cls-1" d="M272.08,122.35c5.13,2.93,10.83,4.89,12.82,10.93.88,2.68,2.54,19.46,1.66,21.44-.49,1.11-1.99,1.75-2.12,3.1-.55,5.6,2.86,15.32,1.99,21.5-.3,2.14-1.67,2.36-1.98,3.87-.47,2.34.67,4.48.5,6.35-.2,2.31-3.03,4.88-1.5,7.64.88,1.14.94.26,1.54-.43,4.73-5.48,2.63-7.2,4.13-12.14.6-1.95,3.12-6.31,3.63-8.73.62-2.93-.49-5.63-.22-8.03.19-1.7,1.4-2.92,1.63-4.23.44-2.55-1.11-6.55,1.33-8.09,2.52,6.93,2.24,13.99,2.62,21.14.23,4.44,1.25,9.07.59,13.61-.31,2.09-1.75,3.41-1.94,5.25-.26,2.45,1.04,4.68.68,7.12-.26,1.77-1.85,2.94-2.17,5.02s.53,4.37.19,6.7c-1.26,8.62-4.48,19.19-6.94,27.54s-3.92,18.08-6.86,26.33c-1.6,4.48-1.74,5.5-2.87,10.14-1.26,5.13-6.13,11.37-7.59,17.19-1.28,5.08-2.2,11.89-4.71,16.7-5.67,10.87-8.33,17.67-12.32,29.32-2.36,6.9-9.12,15.91-11.1,22.14-1.37,4.3-1.72,6.5-4.04,10.87-1.39,2.62-5.44,6.49-3.74,9.94.46.93,5.9,3.76,7.14,3.93,6.01.83,23.67.6,29.96-.04,11.2-1.13,4.19-9.14,8.51-15.56,3.38-5.02,4.06-6.03,5.99-12.23,2.52-8.1,3.83-10.45,7.45-17.93,2.56-5.29,3.37-13.32,6.88-19.15,4.28-7.1,8.24-13.49,12.12-21.06,2.5-4.89,3.84-8.07,7.24-12.26,1.74-2.15,5.23-8.99,6.36-9.59.87-.46,1.97-.27,2.86-.72,6.5-3.23,7.95-14.46,14.92-18.28.82-.45,6.93-2.67,7.65-2.65,2.44.06,11.82,3.66,13.44,5.47,1.76,1.96,1.93,6.02,3.33,8.39.89,1.51,3,2.58,3.52,4.29.78,2.54.47,6.78,1.22,9.84.83,3.36,5.04,11.78,4.96,14.58-.04,1.36-1.27,7.82-1.63,9.49-1.05,4.81-4.44,9.99-5.42,14.75-.41,2.01.17,4.02-.44,6.07-.7,2.37-4.38,7.37-5.3,10.37-.51,1.66.45,2.91-.39,4.71-1.05,2.25-5.76,5.03-6.25,7.48-.33,1.62.86,6.63.47,9.55-1.12,8.32-7.18,17.51-9.9,25.24-3.26,9.25-7.41,16.2-11.2,25.24-.72,1.73-.67,3.97-1.49,5.67-2.3,4.77-1.93,2.93-3.55,8.82-1.24,4.51-3.3,5.76-4.74,8.93-1.92,4.24-2.91,10.41-5.2,14.97-1.35,2.69-4.01,5.33-5.02,7.99s-1.04,6.23-2.14,8.92c-3.47,8.49-7.15,16.71-10.29,25.5-.85,2.37-1.01,6.29-1.92,8.49s-3.17,4.1-3.94,7.12c-1.91,7.52-3.64,14.45-5.69,21.64-2.81,9.85-3.42,20.48-5.34,30.45-.74,3.85-3.51,10.09-3.77,13.18-.63,7.42,3,11.35-.27,19.22-.71,1.72.49,20.29,1.09,22.94.37,1.66,1.88,2.29,2.31,3.54.62,1.79.44,4.2,1.33,6.48,3.5,8.97,8.05,9.79,17.39,8.67,3.24-.39,8.17-4.62,10.73-6.84,5.51-4.77,10.87-11.76,14.59-17.95,5.58-9.27,12-28.86,8.64-39.77-.42-1.38-1.68-2.56-2.12-4.38-.8-3.29-2.16-18.15-1.43-21.03.17-.68,1.54-2.62,2.11-3.1,4.19-3.53,6.06.92,8.44.7,1.58-.15,2.05-2.43,3.62-1.75,1.16.31,5.8,4.92,6.32,6.11.77,1.76.45,3.97,1,5.5,2.57,7.11,3.57,9.55,3.78,17.74.09,3.5-1.39,3.1-1.87,4.69s.08,3.71-.29,5.56c-1.77,8.69-6.34,20.98-10.62,28.42-1.08,1.88-8.41,14.41-9.05,15.02-1.15,1.1-3.2,1.46-4.57,2.59-3.26,2.68-6.31,7.34-9.15,9.72-1.49,1.25-4.43,2.19-6.47,3.94-.98.84-1.57,2.71-2.56,3.3-1.26.75-2.54.38-3.62.96-.57.31-.47,1.57-1.89,1.97-1.74.49-3.74-.08-5.27.6-1.12.5-1.47,2.14-2.18,2.7-2.72,2.17-5.87,2.6-7.91,5.97-3.39-2.61-8.88-2.75-12.64-4.82s-12.05-11.16-13.4-15.23c-4.17-12.55-6.51-25.31-10.01-38.14l-1.37-18.48h-1.95v12.69c0,.31-1.25,4.19-1.6,5.54-.28,1.08-2.42,6.5-3.28,6.49-2.1-3.63-5.19-6.66-3.11-10.89.38-.77,1.24-.81,1.3-.96.48-1.1-.31-6.35-.77-7.68-3.99-11.49-3.66-19.57-2.28-31.51.37-3.2-.54-7.31.02-10.39.28-1.53,1.79-2.75,1.87-4.64.11-2.43-1.09-5.28-.57-8.38.29-1.73,1.6-2.5,1.89-3.96.92-4.61.52-11.3,1.34-15.58.28-1.44,1.65-1.83,1.93-3.27.48-2.47-.38-5.93-.02-8.48.74-5.27,2.13-11.65,3.44-16.73.5-1.94,1.74-4.07,1.83-6.03s-.89-3.63-.69-5.13c.24-1.85,3.36-4.89,1.96-8.18-4.19.59-6.16-.01-7.04-4.39-.66-3.29,3.03-7.34,3.54-10.56.26-1.68-.53-2.76-.4-4.18.3-3.32,3.95-7.65,4.43-9.3.71-2.43.22-5.91,1.6-8.81s5-4.25,5.41-8.92l-3.44-3.81c-8.19-.99-17.92.86-25.91-.12-2.12-.26-2.7-1.2-4.45-1.91l-2.04,1.79c-6.45-4.84-12.91-3.65-16.73,3.55-2.71,5.1-4.24,12.14-7.13,16.95-8.8,14.63-17.05,30.5-25.41,45.52-3.43,6.16-6.69,12.32-10.52,18.11-8.57,12.97-18.02,30.14-31.07,39.21-6.21,4.32-15.2,6.22-20.77.06-.77-.85-.98-2.34-1.45-2.77-.77-.72-2.61-.59-3.71-1.18-2.12-1.15-3.05-3.55-3.3-5.81-1.29-11.48-.35-21.62,3.22-32.57,1.27-3.88,4.87-7.6,7.08-11.14,6.19-9.89,10.37-19.86,16.36-29.83,1.5-2.49,6.07-7.68,6.84-9.43,2.07-4.68,3.19-13.97,5.03-19.05,1.27-3.5,5.63-8.12,7.18-11.69,2.24-5.18,3-12.33,5.19-17.58.83-1.98,2.32-3.27,2.96-5.23-.73-4.91-5.3-5.17-8.28-7.32-7.22-5.22-21.19-16.23-26.7-22.75-2.4-2.84-2.73-5.48-6.17-7.5-1.02-.6-2.63-.49-3.29-1.26-.54-.63-.56-2.22-1.33-3.23-4.4-5.78-9.12-11.62-12.16-18.42-2.28-5.11-4.4-12.42-6.18-17.89s-.79-16-1.45-22.62c-.12-1.18.22-2.43-1.33-2.9v-1.3c5.08-1.13,2.41-4.74,2.73-7.34,1.29-10.44,9.31-28.89,13.86-38.86,4.14-9.07,11.8-15.4,16.22-23.47,7.85-14.32,23.04-26.77,35.19-37.69,9.87-8.87,20.45-19.83,31.74-26.82,5.82-3.6,10.09-7.4,15.44-11.24,1.96-1.41,27.15-13.37,29.99-14.26,3.38-1.07,8.03-.36,10.36-3.64h16.27ZM252.55,139.27c-4.68,1.28-9.39,2.71-13.8,4.74-22.17,10.22-40.85,26.36-59.78,40.44-17.07,18.14-34.44,35.16-47.34,56.12-1.31,2.12-5.84,7.72-6.34,9.27-.82,2.56-.45,5.72-1.72,8.69-2.74,6.38-3.4,5.48-4.61,13.05-.22,1.4-3.86,5.84-4.24,7.43-.44,1.83.61,3.19.5,4.95-.12,1.93-1.69,3.28-1.96,5.25-.25,1.8.36,9.79.7,11.72.28,1.55,1.99,2.93,2.43,4.73.56,2.32.19,5.7.98,8.13,1.37,4.24,6.48,13.54,8.63,18.05.37.77,7.72,11.13,8.3,11.55.97.71,3.18.53,4.71,1.47,2.49,1.53,6.4,6.84,9.11,9.11,6.02,5.03,15.47,10.41,22.56,13.23,2.23.88,3.33,3.13,5.94,1.68,4.07-2.26,3.8-6.97,5.18-10.47.72-1.83,3.16-5.3,3.56-6.85.42-1.64-.16-3.38.29-4.92,1.31-4.55,7.57-16.35,9.76-21.47,3.5-8.18,5.08-15.49,8.06-23.18,5.4-13.92,14.67-27.11,20.09-41.08,2.18-5.62,3.41-13.21,5.74-18.98s6.35-11.16,8.25-17.78c2.22-7.76,4.42-15.69,7.18-23.4.44-1.23,1.39-2.15,1.89-3.33l-.94-1.52c-2.1-.61-6.96,5.06-7.32,6.3-.89,3.08.14,5.81-2.17,9.54-.94,1.51-5.59,5.24-5.7,6.04s1.1,1.46,1.18,2.47c.18,2.44-2.53,8.12-3.82,10.48-.42.77-1.72,1.3-2.25,2.3-.97,1.83-.69,4.41-1.52,6.29-1.1,2.46-6,6.51-6.99,9.93-1.62.8-.93-3.45-.81-4.07.71-3.58,4.71-7.35,5.55-10.72.4-1.62-.09-3.28.31-4.9.64-2.59,5.36-7.66,6.06-10.88,1.3-5.98,1.77-9.49,4.73-15.42,1.59-3.18,8.66-12.19,9.09-13.69,1.06-3.71-.36-7.39,2.24-12.07,1.23-2.21,4.25-3.79,5.33-5.73,1.31-2.35.65-4.33,1.32-6.49,1-3.23,6.75-8.46,5.49-12.55l-2.52-1.08c-.49,2.65-1.79,10.13-4.54,10.77-2.53.59-.65-5.05-.31-6.18,1.82-6.07,6.17-9.68,3.54-16.95ZM257.76,144.48h-.96s-.99,1.29-.99,1.29h1.95s0-1.29,0-1.29ZM197.89,162.03c.32-.25-1.14-1.72-1.95-1.29-.32.25,1.14,1.72,1.95,1.29ZM284.41,202.35l-.29-1.27-2.28,3.25c1.99.43.91-.88,1.5-1.74.22-.32,1-.16,1.07-.24ZM283.14,208.24h-1.29v1.29h1.29v-1.29ZM281.19,210.19h-1.29v1.29h1.29v-1.29ZM277.29,224.51h-1.29v.64h1.29v-.64ZM119.14,247.93l-1.29.32,1.29.98v-1.3ZM115.24,259.64l-1.29.32,1.29.98v-1.3ZM240.19,259.64c-4.4-.7-1.8,5.34-.48,2.44.35-.77.56-1.59.48-2.44ZM104.26,297.93c5.55,1.84,4.4-2.23,5.27-5.28,1.46-5.1.52-5.74,1.19-10.53.37-2.63,1.21-6.47,1.7-9.35.33-1.91,2.97-4.15.52-5.98-1.6-.47-3.17,1.74-3.45,3.1-1.37,6.73-1.79,13.73-3.52,20.5-.61,2.38-2.62,4.68-1.72,7.54ZM234.33,279.15c-.09-1.92.84-5.24-1.95-5.2.09,1.92-.84,5.24,1.95,5.2ZM328.7,286.31c.4-.43-.3-2.58-.97-2.59-1.94-.02-.18,3.83.97,2.59ZM109.38,306.49h-1.3s0,1.29,0,1.29l1.29-1.29ZM316.33,313.65h-1.29v.64h1.29v-.64ZM268.17,433.36l-1.29.32,1.29.98v-1.3ZM281.19,614.24h-1.95v.64h1.95v-.64ZM279.99,621.94c1.56.78,3.53,1.39,3.8-.86-1.1-1.2-2.02-2.62-3.89-2.29l.09,3.15ZM284.44,627.24v-.96s-1.29-.99-1.29-.99v1.95s1.29,0,1.29,0Z"/><path d="M255.16,476.3h-1.95c.23-2.37-1.56-4.29.97-5.85,1.73,1.43.78,3.93.97,5.85Z"/><path d="M214.61,257.48c-1.46,1.24-2.94,1.22-2.9-.89.03-1.58,3.3-4.28,2.45-6.71.53-.56,4.18,1.69,3.93,2.93,0,.4-3.05,4.31-3.48,4.67Z"/><path d="M199.84,288.27c1.37,1.39-2.76,3.74-3.9,3.25-.44-1.51,3.07-4.09,3.9-3.25Z"/><path d="M212.21,264.2l-3.01,3.81-2.83-.89c.89-1.53,2.79-.58,3.76-1.12.53-.29.44-2.3,2.08-1.8Z"/><polygon points="205.7 274.59 204.4 274.6 204.41 273.3 205.7 274.59"/><rect x="246.05" y="165.95" width="1.29" height=".64"/><g id="I0DHlK.tif"><path class="cls-1" d="M611.51,390.35c15.73,10.69,18.67,19.47,13.01,37.52-5.43,17.31-16.14,34.66-26.61,49.37-7.9,11.1-17.09,20.52-25.38,30.61-4.01,4.88-6.21,4.35-6.98,12.01-1.16,11.52.98,36.02,5.22,46.75.87,2.21,2.03,4.88,3.43,6.79,16.41,4.04,41.5-36.99,51.81-47.05,1.38.7.06,2.63-.44,3.56-3.4,6.38-10.58,12.26-13.05,19.43l17.49-20.99.5,3.01,2.98-1.01-.98,5.01,1.98.47c-5.68,9.82-11.09,19.72-16.42,29.58-.83,1.54-.44,3.66-1.48,5.52-22.32,39.57-70.14,15.63-70.04-24.07l-1.98-.49c-2.01,5.2-8.51,6.19-12.56,9.95-2.25,2.09-3.41,4.92-5.95,7.04-7.36,6.15-11.12,5.84-15.28,16.7-5.49,14.34-10.26,29.66-15.7,44.29-2.93,7.87-5.8,14.57-9.65,22.35-3.46,7-15.46,20.58-24.07,18.47-2.91-.71-5.51-3.65-7.55-4.72-3.52-1.84-5.33.41-9.03-4.77-11.27-15.78,8.54-45.11,18.4-58.25,6.79-9.04,23.6-23.24,27.84-31.15,1.54-2.87,4.05-13.05,5.08-16.92,3.65-13.67,6.16-27.92,7.47-42.01l-19.97,28.52,1.98,1.98c-8.5,5.2-13.25,15.34-20.01,22.98-2.19,2.47-6.49,7.22-8.95,9.04-1.41,1.04-2.91,1.3-1.02-1.02s7.03-5.24,6.5-8.49c-2.75,2.24-5.51,5.67-8.1,7.88-.91.78-3.08.87-3.35,1.23-.24.32,1.93,5.72-4.04,4.87l2.01-1.49c-1.72-2.29-4.7-.3-6.45-.54-1.53-.21-2.53-1.59-4.1-1.92-3.63-.76-9.68,1.37-7.43-5.03,1.99.16-.1,2.84,2.8,1.2.16,1.77,3.26,4.66,4.17,1.81-3.43-1.47-4.21-4.65-8.88-4.16l-.61-2.84c-6.97,9.35-15.81,18.37-26.6,23.38-15.5,7.19-29.72,4.91-44.87-1.88-11.21-5.02-17.39-19.27-19.99-30.5.38-5.5-.53-11.59,0-17,1.9-19.59,21.13-63.24,42.72-66.76,6.46-1.06,4.67,1.42,6.56,2.44,1.73.94,3.32.81,5.21,2.31,9.26,7.37,12.08,14.72,6.66,25.7-3.24,6.57-20.82,26.8-26.89,30.3-3.5,2.02-8.47.97-10.75,6.04-1.18,2.63-2.32,16.49-2.05,19.51.08.93,3.06,10.61,3.44,11.05,3.14,3.72,12.58.76,16.62-.54,19.58-6.29,37.91-21.56,50.91-37.1,1.2-7.99,2.71-24.43,6.69-31.3.84-1.45,2.48-1.51,2.68-1.78.23-.33-1.84-5.72.18-7.85l4.95.98c.82-3.82-3.68-.92-4.99-2.49,3.39-4.81,3.95-11.89,6.77-17.23,2.32-4.39,3.41,5.18,7.21,1.73v3s-2.99.01-2.99.01l2.05,1.51-2.98,16.84-3.08.65c.42,1.26,1.46,1.38,1.52,3.02.22,5.67-3.75,14.63-4.46,20.53-.41,3.42.17,7.01-.06,10.44l-2.99.51c3.65.98,1.02,1.93,1.09,4.09.22,6.55-.89,12.58-1.56,18.93-.09.89-1.49,1.74-1.56,2.95l2.81,1.95-.78,3.57c11.44-8.93,19.14-23.02,27.56-34.92.98-1.39,2.51-2.3,3.42-3.58,6.46-9.09,23.71-41.49,34.59-42.5,2.93-.27,8.78,4.78,10.79,7.09,11.52,13.22,3.17,41.5,2.56,57.37-.05,1.37-.74,5.42,1.52,4.53l24.99-16c3.48-31.91,9.12-62.3,22.33-91.66,8.1-17.99,19.91-39.43,38.15-48.33h6ZM603.52,418.35l-.5-1.99c-6.06,4.63-8.14,12.07-11.58,18.2-3,5.35-7.26,11.5-9.79,17.42-4.57,10.67-7.27,22.17-10.11,33.38,7.75-6.02,37.97-65.08,34.96-69l-2.98,2ZM572.54,492.35c4.89-5.92,10.08-12.93,12.97-20-4.89,5.92-10.08,12.93-12.97,20ZM376.63,475.36l-10.88,6.6-3.09,5.4c3.59-2.95,8.41-5.76,11.92-8.56,1.17-.93,2.41-1.65,2.05-3.44ZM545.54,533.36c-1.2-1.05-21.29,13.79-24.31,15.17l-4.67,4.82c2.52-.61,5.34-2.54,7.52-3.96,6.32-4.11,13.5-8.99,19.57-13.45.53-.39,3.62-1.05,1.89-2.57ZM454.24,554c1.85-2.09,6.54-8.6,7.52-10.99.53-1.29.54-2.7-.67-2.63-1.76.1-8.81,10.55-10.53,12.49-2.82,3.18-8.66,5.64-8.95,10.49,1.24,1.28,11.38-7.94,12.63-9.35ZM419.61,545.36c-1.87-.44-2.38,1.04-3.5,1.99-5.61,4.73-10.67,10.45-16.49,14.99,8.14-2.84,14.24-10.79,19.99-16.98ZM466.58,545.36c-2.56.34-4.85,4.12-6.41,6.08-1.91,2.41-4.46,6.04-5.57,8.91,1.56-.67,2.84-2.27,3.96-3.53,2.8-3.16,6.31-7.59,8.02-11.47Z"/><path class="cls-1" d="M572.54,492.35c2.89-7.07,8.09-14.08,12.97-20-2.89,7.07-8.09,14.08-12.97,20Z"/></g></g></svg>